With a ticking bomb locked to his neck, a young freerunner races against the clock and all types of baddies to get from one end of the city to the other to save himself and his girlfriend.

IMDB rating: 8.2/10 (from 11 users)

CAST:

Sean Faris...............Ryan
Danny Dyer...............Mr. Frank
Tamer Hassan.............Reese
Amanda Fuller............Dalores
Seymour Cassel...........Grampa
Mariah Bonner............Deedee
Casey Durkin.............Stacey
Phillip DeVona...........Wall Street
Jason Botsford...........Cyber Cafe & Bistro Customer
Ryan Doyle...............Finch
Rebecca Da Costa.........Chelsea
Curtis Taylor............American Bussinessman
Jim Boeven...............The german bizman
Richard Fike.............Policeman #1
Jia Mae..................Fan (as Jia Perlich)

Format                           : Matroska
File size                        : 901 MiB
Duration                         : 1h 27mn
Overall bit rate                 : 1 435 Kbps
Writing application              : HandBrake 0.9.5
Writing library                  : libmkv 0.6.4.1

Video
ID                               : 1
Format                           : AVC
Format/Info                      : Advanced Video Codec
Format profile                   : Main@L3.0
Format settings, CABAC           : Yes
Format settings, ReFrames        : 4 frames
Muxing mode                      : Container profile=Unknown@3.0
Codec ID                         : V_MPEG4/ISO/AVC
Duration                         : 1h 27mn
Bit rate                         : 1 022 Kbps
Nominal bit rate                 : 1 046 Kbps
Width                            : 720 pixels
Height                           : 320 pixels
Display aspect ratio             : 2.25:1
Frame rate mode                  : Variable
Frame rate                       : 23.976 fps
Resolution                       : 8 bits
Colorimetry                      : 4:2:0
Scan type                        : Progressive
Bits/(Pixel*Frame)               : 0.185
Stream size                      : 641 MiB (71%)
Writing library                  : x264 core 112

Audio
ID                               : 2
Format                           : AC-3
Format/Info                      : Audio Coding 3
Codec ID                         : A_AC3
Duration                         : 1h 27mn
Bit rate mode                    : Constant
Bit rate                         : 384 Kbps
Channel(s)                       : 6 channels
Channel positions                : Front: L C R, Side: L R, LFE
Sampling rate                    : 48.0 KHz
Stream size                      : 241 MiB (27%)
Language                         : English